<svg width="58" height="46" viewBox="0 0 58 46" fill="none" xmlns="http://www.w3.org/2000/svg">
<path d="M15.42 22.146C14.7173 22.146 14.2187 22.35 13.924 22.758C13.6293 23.1433 13.482 23.7213 13.482 24.492V28.334C13.482 29.7167 14.1053 30.408 15.352 30.408C15.896 30.408 16.2473 30.3287 16.406 30.17C16.5647 29.9887 16.6667 29.796 16.712 29.592C16.78 29.3653 16.8707 29.1727 16.984 29.014C17.12 28.8553 17.426 28.776 17.902 28.776C18.718 28.776 19.126 29.2747 19.126 30.272C19.126 30.748 18.9107 31.088 18.48 31.292C18.0493 31.4733 17.4033 31.564 16.542 31.564H13.584C11.8613 31.564 11 30.782 11 29.218V23.268C11.0453 21.7267 11.9407 20.956 13.686 20.956H16.542C17.4033 20.956 18.0493 21.0807 18.48 21.33C18.9107 21.5567 19.126 21.84 19.126 22.18C19.126 23.132 18.718 23.608 17.902 23.608C17.4033 23.608 17.086 23.54 16.95 23.404C16.814 23.2453 16.7007 23.0753 16.61 22.894C16.542 22.69 16.44 22.52 16.304 22.384C16.1907 22.2253 15.896 22.146 15.42 22.146Z" fill="#E5E5E5"/>
<path d="M30.8555 29.218C30.8555 30.0567 30.6288 30.6573 30.1755 31.02C29.7448 31.3827 29.1101 31.564 28.2715 31.564H25.4495C23.6361 31.564 22.7295 30.782 22.7295 29.218V23.336C22.7295 22.6107 22.9448 22.0327 23.3755 21.602C23.8061 21.1713 24.4748 20.956 25.3815 20.956H28.2715C29.1101 20.956 29.7448 21.1713 30.1755 21.602C30.6288 22.0327 30.8555 22.622 30.8555 23.37V29.218ZM28.4075 28.334V24.186C28.4075 22.8487 27.9315 22.18 26.9795 22.18H26.5375C25.6535 22.18 25.2115 22.9053 25.2115 24.356V28.368C25.2115 29.728 25.6648 30.408 26.5715 30.408H27.0815C27.9655 30.408 28.4075 29.7167 28.4075 28.334Z" fill="#E5E5E5"/>
<path d="M39.4229 26.736H37.2129C35.3316 26.736 34.3909 26.09 34.3909 24.798V23.37C34.3909 21.7607 35.2976 20.956 37.1109 20.956H40.9189C41.7803 20.956 42.2109 21.1373 42.2109 21.5C42.2109 21.9307 41.7576 22.146 40.8509 22.146H37.8249C37.1676 22.146 36.8389 22.52 36.8389 23.268V24.764C36.8389 25.3533 37.1676 25.648 37.8249 25.648H39.7629C41.4856 25.648 42.4149 26.3507 42.5509 27.756V29.116C42.5509 30.748 41.6556 31.564 39.8649 31.564H35.6489C34.8103 31.564 34.3909 31.3487 34.3909 30.918C34.3909 30.51 34.8443 30.306 35.7509 30.306H39.4229C40.0803 30.306 40.4089 29.9433 40.4089 29.218V27.688C40.4089 27.0533 40.0803 26.736 39.4229 26.736Z" fill="#E5E5E5"/>
<path d="M41.5838 17.081H38.4898C38.1432 17.081 37.9698 16.9857 37.9698 16.795C37.9698 16.5957 38.1475 16.496 38.5028 16.496H41.5838C41.9305 16.496 42.1038 16.5957 42.1038 16.795C42.1038 16.9857 41.9305 17.081 41.5838 17.081Z" fill="#E5E5E5"/>
<path d="M45.6348 18.979V15.183C45.6348 14.949 45.5785 14.793 45.4658 14.715C45.3532 14.6283 45.2275 14.572 45.0888 14.546C44.9502 14.5113 44.8202 14.481 44.6988 14.455C44.5862 14.429 44.5298 14.3597 44.5298 14.247C44.5298 14.0823 44.6945 14 45.0238 14H45.5828C46.2588 14 46.5968 14.3077 46.5968 14.923V19.031C46.5968 19.4643 46.4365 19.681 46.1158 19.681C45.7952 19.681 45.6348 19.447 45.6348 18.979Z" fill="#E5E5E5"/>
</svg>
