<svg width="58" height="46" viewBox="0 0 58 46" fill="none" xmlns="http://www.w3.org/2000/svg">
<path d="M19.032 26.736H16.822C14.9407 26.736 14 26.09 14 24.798V23.37C14 21.7607 14.9067 20.956 16.72 20.956H20.528C21.3893 20.956 21.82 21.1373 21.82 21.5C21.82 21.9307 21.3667 22.146 20.46 22.146H17.434C16.7767 22.146 16.448 22.52 16.448 23.268V24.764C16.448 25.3533 16.7767 25.648 17.434 25.648H19.372C21.0947 25.648 22.024 26.3507 22.16 27.756V29.116C22.16 30.748 21.2647 31.564 19.474 31.564H15.258C14.4193 31.564 14 31.3487 14 30.918C14 30.51 14.4533 30.306 15.36 30.306H19.032C19.6893 30.306 20.018 29.9433 20.018 29.218V27.688C20.018 27.0533 19.6893 26.736 19.032 26.736Z" fill="#E5E5E5"/>
<path d="M27.2595 17.998C26.3981 17.998 25.9675 17.692 25.9675 17.08C25.9675 16.468 26.3981 16.162 27.2595 16.162C28.0755 16.162 28.4835 16.468 28.4835 17.08C28.4835 17.692 28.0755 17.998 27.2595 17.998ZM27.2595 31.7C26.4208 31.7 26.0015 31.1787 26.0015 30.136V22.622C26.0015 21.5567 26.4208 21.024 27.2595 21.024C28.0528 21.024 28.4495 21.534 28.4495 22.554V30.102C28.4495 31.1673 28.0528 31.7 27.2595 31.7Z" fill="#E5E5E5"/>
<path d="M37.9565 24.084C37.9565 22.8147 37.4805 22.18 36.5285 22.18H36.0865C35.1798 22.18 34.7265 22.86 34.7265 24.22V29.898C34.7265 31.0993 34.3298 31.7 33.5365 31.7C32.6751 31.7 32.2445 31.1787 32.2445 30.136V23.336C32.2445 22.6107 32.4598 22.0327 32.8905 21.602C33.3438 21.1713 34.0238 20.956 34.9305 20.956H37.8205C38.6591 20.956 39.2938 21.1713 39.7245 21.602C40.1778 22.01 40.4045 22.5767 40.4045 23.302V30.068C40.4045 31.156 39.9851 31.7 39.1465 31.7C38.3531 31.7 37.9565 31.0993 37.9565 29.898V24.084Z" fill="#E5E5E5"/>
<path d="M39.9467 17.081H36.8527C36.506 17.081 36.3327 16.9857 36.3327 16.795C36.3327 16.5957 36.5103 16.496 36.8657 16.496H39.9467C40.2933 16.496 40.4667 16.5957 40.4667 16.795C40.4667 16.9857 40.2933 17.081 39.9467 17.081Z" fill="#E5E5E5"/>
<path d="M43.9977 18.979V15.183C43.9977 14.949 43.9414 14.793 43.8287 14.715C43.716 14.6283 43.5904 14.572 43.4517 14.546C43.313 14.5113 43.183 14.481 43.0617 14.455C42.949 14.429 42.8927 14.3597 42.8927 14.247C42.8927 14.0823 43.0574 14 43.3867 14H43.9457C44.6217 14 44.9597 14.3077 44.9597 14.923V19.031C44.9597 19.4643 44.7994 19.681 44.4787 19.681C44.158 19.681 43.9977 19.447 43.9977 18.979Z" fill="#E5E5E5"/>
</svg>
