<svg width="58" height="46" viewBox="0 0 58 46" fill="none" xmlns="http://www.w3.org/2000/svg">
<path d="M13.258 16.264C14.0513 16.264 14.448 16.8533 14.448 18.032V19.154C14.448 20.3553 15.1053 20.956 16.42 20.956H17.066C17.9727 20.956 18.426 21.1487 18.426 21.534C18.426 21.942 17.9727 22.146 17.066 22.146H16.42C15.1053 22.146 14.448 22.9393 14.448 24.526V28.266C14.448 29.6033 15.094 30.272 16.386 30.272H17.202C18.086 30.272 18.528 30.4873 18.528 30.918C18.528 31.3487 18.12 31.564 17.304 31.564H14.482C12.8273 31.564 12 30.7367 12 29.082V17.862C12 16.7967 12.4193 16.264 13.258 16.264Z" fill="#E5E5E5"/>
<path d="M25.3952 20.31H22.5052C21.6439 20.31 21.2132 20.106 21.2132 19.698C21.2132 19.3127 21.6212 19.12 22.4372 19.12H26.4832C28.1605 19.12 28.9992 19.9813 28.9992 21.704V29.116C28.9992 30.748 28.1605 31.564 26.4832 31.564H23.6272C21.7912 31.564 20.8732 30.8953 20.8732 29.558V25.138C20.8732 24.5713 21.0885 24.118 21.5192 23.778C21.9499 23.4153 22.6185 23.234 23.5252 23.234H25.3272C26.1432 23.234 26.5512 22.826 26.5512 22.01V21.67C26.5512 20.7633 26.1659 20.31 25.3952 20.31ZM23.2872 26.056V28.64C23.2872 29.8187 23.8425 30.408 24.9532 30.408C26.0185 30.408 26.5512 29.8187 26.5512 28.64V26.056C26.5512 24.9453 26.0185 24.39 24.9532 24.39C23.8425 24.39 23.2872 24.9453 23.2872 26.056Z" fill="#E5E5E5"/>
<path d="M38.2467 24.084C38.2467 22.8147 37.7707 22.18 36.8187 22.18H36.3767C35.47 22.18 35.0167 22.86 35.0167 24.22V29.898C35.0167 31.0993 34.62 31.7 33.8267 31.7C32.9653 31.7 32.5347 31.1787 32.5347 30.136V23.336C32.5347 22.6107 32.75 22.0327 33.1807 21.602C33.634 21.1713 34.314 20.956 35.2207 20.956H38.1107C38.9493 20.956 39.584 21.1713 40.0147 21.602C40.468 22.01 40.6947 22.5767 40.6947 23.302V30.068C40.6947 31.156 40.2753 31.7 39.4367 31.7C38.6433 31.7 38.2467 31.0993 38.2467 29.898V24.084Z" fill="#E5E5E5"/>
<path d="M40.0748 17.081H36.9808C36.6341 17.081 36.4608 16.9857 36.4608 16.795C36.4608 16.5957 36.6385 16.496 36.9938 16.496H40.0748C40.4215 16.496 40.5948 16.5957 40.5948 16.795C40.5948 16.9857 40.4215 17.081 40.0748 17.081Z" fill="#E5E5E5"/>
<path d="M44.1258 18.979V15.183C44.1258 14.949 44.0695 14.793 43.9568 14.715C43.8441 14.6283 43.7185 14.572 43.5798 14.546C43.4411 14.5113 43.3111 14.481 43.1898 14.455C43.0771 14.429 43.0208 14.3597 43.0208 14.247C43.0208 14.0823 43.1855 14 43.5148 14H44.0738C44.7498 14 45.0878 14.3077 45.0878 14.923V19.031C45.0878 19.4643 44.9275 19.681 44.6068 19.681C44.2861 19.681 44.1258 19.447 44.1258 18.979Z" fill="#E5E5E5"/>
</svg>
