<svg width="58" height="46" viewBox="0 0 58 46" fill="none" xmlns="http://www.w3.org/2000/svg">
<path d="M32.049 21.7539C31.236 22.5599 30.9706 23.3476 31.7466 24.1169L34.7675 27.1118C35.5251 27.8628 35.6452 28.4947 35.1278 29.0076C34.6105 29.5205 33.973 29.4014 33.2155 28.6504L30.1946 25.6555C29.4185 24.8862 28.8822 24.8954 28.0877 25.683L25.1504 28.3482C24.5777 28.916 24.0788 28.9893 23.6538 28.568C23.2289 28.1467 23.3028 27.6521 23.8756 27.0843L26.2318 24.3649C27.0263 23.5773 27.3584 22.8438 26.5639 22.0562L23.8478 19.3635C23.1088 18.6308 22.9979 18.0081 23.5153 17.4952C24.0326 16.9823 24.6608 17.0922 25.3999 17.8249L28.1159 20.5175C28.9104 21.3052 29.2105 21.296 30.0234 20.4901L33.1878 17.8524C33.779 17.2662 34.2871 17.1838 34.7121 17.6051C35.137 18.0264 35.0539 18.5301 34.4627 19.1163L32.049 21.7539Z" fill="#E5E5E5"/>
</svg>
