<svg width="117" height="43" viewBox="0 0 117 43" fill="none" xmlns="http://www.w3.org/2000/svg">
<path d="M64.1461 28.175C64.1461 29.6773 63.2201 30.4284 61.3681 30.4284H55.7103C53.9034 30.4284 53 29.6773 53 28.175V18.1189C53 16.7063 53.9034 16 55.7103 16H61.3681C63.2201 16 64.1461 16.7063 64.1461 18.1189V28.175ZM57.1332 29.184H59.6402C59.8887 29.184 60.1371 29.1504 60.3856 29.0831C60.634 29.0158 60.8599 28.9037 61.0631 28.7468C61.289 28.5898 61.4584 28.3768 61.5713 28.1077C61.7068 27.8163 61.7746 27.4463 61.7746 26.9979V20.8767C61.7746 20.6525 61.6955 20.5404 61.5374 20.5404C61.3342 20.5404 60.9728 20.7983 60.4533 21.314L56.2524 26.897C55.62 27.5024 55.3038 27.9956 55.3038 28.3768C55.3038 28.9149 55.9136 29.184 57.1332 29.184ZM60.826 19.666C61.3455 19.1951 61.6052 18.7579 61.6052 18.3543C61.6052 17.9731 61.3906 17.7041 60.9615 17.5471C60.555 17.3901 60.171 17.3117 59.8096 17.3117H57.4381C56.738 17.3117 56.2072 17.491 55.8458 17.8498C55.507 18.2085 55.3376 18.7915 55.3376 19.5987V25.4508C55.3376 25.6526 55.3941 25.7535 55.507 25.7535C55.6425 25.7535 55.9813 25.518 56.5234 25.0472L60.826 19.666Z" fill="#E5E5E5"/>
</svg>
