<svg width="58" height="46" viewBox="0 0 58 46" fill="none" xmlns="http://www.w3.org/2000/svg">
<path d="M24.8408 27.5065C24.6825 27.3495 24.5354 27.271 24.3997 27.271C24.264 27.271 24.1283 27.3495 23.9926 27.5065L21.3804 31.3742C20.7924 32.0469 20.2948 32.3832 19.8877 32.3832C19.6615 32.3832 19.458 32.2823 19.2771 32.0805C19.0961 31.8787 19.0057 31.6769 19.0057 31.4751C18.983 31.2957 19.0283 31.1164 19.1414 30.937C19.2544 30.7576 19.3788 30.5558 19.5145 30.3316L22.1946 26.2957C22.6696 25.6679 22.907 25.1073 22.907 24.6141C22.907 24.0984 22.6583 23.5715 22.1607 23.0333L19.5145 19.4683C19.3788 19.2665 19.2544 19.0871 19.1414 18.9301C19.0283 18.7508 18.983 18.5714 19.0057 18.392C19.0057 18.1902 19.0848 17.9884 19.2431 17.7866C19.4014 17.5624 19.605 17.4503 19.8538 17.4503C20.2835 17.4503 20.7924 17.7754 21.3804 18.4257L23.9926 21.9235C24.0831 22.058 24.2301 22.1252 24.4337 22.1252C24.5468 22.1252 24.6825 22.058 24.8408 21.9235L27.4191 18.4257C27.9393 17.7754 28.4255 17.4503 28.8779 17.4503C29.1493 17.4503 29.3528 17.5624 29.4885 17.7866C29.6468 17.9884 29.726 18.2014 29.726 18.4257C29.7486 18.605 29.7147 18.7732 29.6242 18.9301C29.5564 19.0871 29.4433 19.2665 29.285 19.4683L26.6727 23.0333C26.1299 23.5715 25.8585 24.0984 25.8585 24.6141C25.8585 25.1298 26.1186 25.6903 26.6388 26.2957L29.285 30.3316C29.4433 30.5558 29.5564 30.7576 29.6242 30.937C29.7147 31.0939 29.7486 31.2621 29.726 31.4415C29.726 31.6881 29.6355 31.9123 29.4546 32.1141C29.2736 32.2935 29.0701 32.3832 28.8439 32.3832C28.4142 32.3832 27.9393 32.0469 27.4191 31.3742L24.8408 27.5065Z" fill="#E5E5E5"/>
<path d="M37.0935 21.0688C37.7401 21.0688 38.0634 20.7602 38.0634 20.1429V19.128C38.0634 18.5107 37.7222 18.2021 37.0397 18.2021H34.8126C33.8786 18.2021 33.4117 17.8282 33.4117 17.0804V14.7656C33.4117 14.2552 33.6212 14 34.0403 14C34.4594 14 34.6689 14.2671 34.6689 14.8012V16.564C34.6689 17.1931 35.0221 17.5077 35.7286 17.5077H37.0037C37.7102 17.5077 38.0634 17.1931 38.0634 16.564V14.8012C38.0634 14.2671 38.2729 14 38.692 14C39.1231 14 39.3386 14.2611 39.3386 14.7834L39.3206 20.5702C39.3087 21.3418 38.8417 21.7276 37.9197 21.7276H33.9325C33.5853 21.7276 33.4117 21.6148 33.4117 21.3893C33.4117 21.1756 33.5973 21.0688 33.9684 21.0688H37.0935Z" fill="#E5E5E5"/>
</svg>
