<svg width="58" height="46" viewBox="0 0 58 46" fill="none" xmlns="http://www.w3.org/2000/svg">
<path d="M22.3862 23C23.3835 23 24.3036 23.5366 24.7948 24.4046L27.8782 29.8536C27.9645 30.0061 28.1261 30.1003 28.3013 30.1003C28.4293 30.1003 28.5424 30.0169 28.5801 29.8946L33.4413 14.1425C33.6506 13.4642 34.2796 13.003 34.9895 13.0074C35.2417 13.0089 35.419 13.2559 35.34 13.4953L29.274 31.8774C29.0529 32.5474 28.4269 33 27.7214 33C27.5462 33 27.3854 32.9029 27.3039 32.7477L22.9663 24.4918C22.7682 24.1148 22.4738 23.797 22.113 23.5708L22.0918 23.5576C22.0347 23.5217 22 23.4591 22 23.3916V23.3862C22 23.1729 22.1729 23 22.3862 23Z" fill="#E5E5E5"/>
</svg>
