<svg width="58" height="46" viewBox="0 0 58 46" fill="none" xmlns="http://www.w3.org/2000/svg">
<path d="M36.6105 26.8051H30.3858C29.6883 26.8051 29.3396 26.62 29.3396 26.2497C29.3396 25.8625 29.697 25.6689 30.4119 25.6689H36.6105C37.308 25.6689 37.6567 25.8625 37.6567 26.2497C37.6567 26.62 37.308 26.8051 36.6105 26.8051Z" fill="#E5E5E5"/>
<path d="M25.0817 18.8144C24.4373 18.8144 24.1151 19.1113 24.1151 19.7052V22.0169C24.1151 22.5967 23.91 22.8865 23.4999 22.8865C23.0898 22.8865 22.8848 22.5967 22.8848 22.0169V19.7052C22.8848 19.1113 22.5699 18.8144 21.9401 18.8144H19.809C19.355 18.8144 19.1279 18.6518 19.1279 18.3266C19.1279 18.0014 19.355 17.8388 19.809 17.8388H21.9401C22.5699 17.8388 22.8848 17.5348 22.8848 16.9268V14.8484C22.8848 14.2828 23.0898 14 23.4999 14C23.91 14 24.1151 14.2828 24.1151 14.8484V16.9268C24.1151 17.5348 24.4373 17.8388 25.0817 17.8388H27.1908C27.6595 17.8388 27.8938 18.0014 27.8938 18.3266C27.8938 18.6518 27.6595 18.8144 27.1908 18.8144H25.0817Z" fill="#E5E5E5"/>
<path d="M33.7736 16.648L25.6315 28.7558C25.1792 29.5854 24.7156 30.0002 24.2406 30.0002C23.9918 30.0002 23.7657 29.9217 23.5621 29.7647C23.3812 29.6078 23.2907 29.3948 23.2907 29.1257C23.2907 28.8118 23.4151 28.4194 23.6639 27.9486L31.5345 16.2444C31.7154 15.8184 31.919 15.5045 32.1452 15.3027C32.3939 15.1009 32.654 15 32.9254 15C33.2195 15 33.4456 15.1009 33.6039 15.3027C33.7849 15.5045 33.8753 15.7399 33.8753 16.009C33.8753 16.2108 33.8414 16.4238 33.7736 16.648Z" fill="#E5E5E5"/>
</svg>
