<svg width="58" height="46" viewBox="0 0 58 46" fill="none" xmlns="http://www.w3.org/2000/svg">
<path d="M29.8408 26.0562C29.6825 25.8992 29.5354 25.8207 29.3997 25.8207C29.264 25.8207 29.1283 25.8992 28.9926 26.0562L26.3804 29.9239C25.7924 30.5966 25.2948 30.9329 24.8877 30.9329C24.6615 30.9329 24.458 30.832 24.2771 30.6302C24.0961 30.4284 24.0057 30.2266 24.0057 30.0248C23.983 29.8454 24.0283 29.6661 24.1414 29.4867C24.2544 29.3073 24.3788 29.1055 24.5145 28.8813L27.1946 24.8454C27.6696 24.2176 27.907 23.657 27.907 23.1637C27.907 22.648 27.6583 22.1211 27.1607 21.583L24.5145 18.018C24.3788 17.8162 24.2544 17.6368 24.1414 17.4798C24.0283 17.3005 23.983 17.1211 24.0057 16.9417C24.0057 16.7399 24.0848 16.5381 24.2431 16.3363C24.4014 16.1121 24.605 16 24.8538 16C25.2835 16 25.7924 16.3251 26.3804 16.9753L28.9926 20.4731C29.0831 20.6077 29.2301 20.6749 29.4337 20.6749C29.5468 20.6749 29.6825 20.6077 29.8408 20.4731L32.4191 16.9753C32.9393 16.3251 33.4255 16 33.8779 16C34.1493 16 34.3528 16.1121 34.4885 16.3363C34.6468 16.5381 34.726 16.7511 34.726 16.9753C34.7486 17.1547 34.7147 17.3229 34.6242 17.4798C34.5564 17.6368 34.4433 17.8162 34.285 18.018L31.6727 21.583C31.1299 22.1211 30.8585 22.648 30.8585 23.1637C30.8585 23.6794 31.1186 24.24 31.6388 24.8454L34.285 28.8813C34.4433 29.1055 34.5564 29.3073 34.6242 29.4867C34.7147 29.6436 34.7486 29.8118 34.726 29.9912C34.726 30.2378 34.6355 30.462 34.4546 30.6638C34.2736 30.8432 34.0701 30.9329 33.8439 30.9329C33.4142 30.9329 32.9393 30.5966 32.4191 29.9239L29.8408 26.0562Z" fill="#E5E5E5"/>
</svg>
